<?xml version="1.0" encoding="UTF-8" standalone="no"?>
<svg
   width="720pt"
   height="216pt"
   viewBox="0 0 720 216"
   version="1.1"
   id="svg767"
   sodipodi:docname="data_latest_plot.svg"
   inkscape:export-filename="/home/martin/sdilene/doma/co2minimeter/plot_example_images/data_latest_plot.png"
   inkscape:export-xdpi="100"
   inkscape:export-ydpi="100"
   inkscape:version="1.1.2 (0a00cf5339, 2022-02-04)"
   xmlns:inkscape="http://www.inkscape.org/namespaces/inkscape"
   xmlns:sodipodi="http://sodipodi.sourceforge.net/DTD/sodipodi-0.dtd"
   xmlns:xlink="http://www.w3.org/1999/xlink"
   xmlns="http://www.w3.org/2000/svg"
   xmlns:svg="http://www.w3.org/2000/svg"
   xmlns:rdf="http://www.w3.org/1999/02/22-rdf-syntax-ns#"
   xmlns:cc="http://creativecommons.org/ns#"
   xmlns:dc="http://purl.org/dc/elements/1.1/">
  <sodipodi:namedview
     id="namedview769"
     pagecolor="#ffffff"
     bordercolor="#666666"
     borderopacity="1.0"
     inkscape:pageshadow="2"
     inkscape:pageopacity="0.0"
     inkscape:pagecheckerboard="0"
     inkscape:document-units="pt"
     showgrid="false"
     inkscape:zoom="0.93985768"
     inkscape:cx="480.39188"
     inkscape:cy="173.96251"
     inkscape:window-width="1848"
     inkscape:window-height="1043"
     inkscape:window-x="0"
     inkscape:window-y="0"
     inkscape:window-maximized="1"
     inkscape:current-layer="svg767" />
  <metadata
     id="metadata2">
    <rdf:RDF>
      <cc:Work>
        <dc:type
           rdf:resource="http://purl.org/dc/dcmitype/StillImage" />
        <dc:date>2025-12-13T11:28:04.275236</dc:date>
        <dc:format>image/svg+xml</dc:format>
        <dc:creator>
          <cc:Agent>
            <dc:title>Matplotlib v3.10.1+dfsg1, https://matplotlib.org/</dc:title>
          </cc:Agent>
        </dc:creator>
      </cc:Work>
    </rdf:RDF>
  </metadata>
  <defs
     id="defs6">
    <style
       type="text/css"
       id="style4">*{stroke-linejoin: round; stroke-linecap: butt}</style>
  </defs>
  <g
     id="figure_1">
    <g
       id="patch_1">
      <path
         d="M 0 216  L 720 216  L 720 0  L 0 0  z "
         style="fill: #ffffff"
         id="path8" />
    </g>
    <g
       id="axes_1">
      <g
         id="patch_2">
        <path
           d="M 57.44 176.753451  L 615.34 176.753451  L 615.34 10.8  L 57.44 10.8  z "
           style="fill: #ffffff"
           id="path11" />
      </g>
      <g
         id="matplotlib.axis_1">
        <g
           id="xtick_1">
          <g
             id="line2d_1">
            <path
               d="M 82.224096 176.753451  L 82.224096 10.8  "
               clip-path="url(#pc100ea07c9)"
               style="fill: none; stroke: #b0b0b0; stroke-opacity: 0.3; stroke-width: 0.5; stroke-linecap: square"
               id="path14" />
          </g>
          <g
             id="line2d_2">
            <defs
               id="defs18">
              <path
                 id="m18fcddc699"
                 d="M 0 0  L 0 3.5  "
                 style="stroke: #000000; stroke-width: 0.8" />
            </defs>
            <g
               id="g22">
              <use
                 xlink:href="#m18fcddc699"
                 x="82.224096"
                 y="176.753451"
                 style="stroke: #000000; stroke-width: 0.8"
                 id="use20" />
            </g>
          </g>
          <g
             id="text_1">
            <!-- 00:00 -->
            <g
               transform="translate(75.633861 204.354124) rotate(-45) scale(0.08 -0.08)"
               id="g39">
              <defs
                 id="defs27">
                <path
                   id="DejaVuSans-30"
                   d="M 2034 4250  Q 1547 4250 1301 3770  Q 1056 3291 1056 2328  Q 1056 1369 1301 889  Q 1547 409 2034 409  Q 2525 409 2770 889  Q 3016 1369 3016 2328  Q 3016 3291 2770 3770  Q 2525 4250 2034 4250  z M 2034 4750  Q 2819 4750 3233 4129  Q 3647 3509 3647 2328  Q 3647 1150 3233 529  Q 2819 -91 2034 -91  Q 1250 -91 836 529  Q 422 1150 422 2328  Q 422 3509 836 4129  Q 1250 4750 2034 4750  z "
                   transform="scale(0.015625)" />
                <path
                   id="DejaVuSans-3a"
                   d="M 750 794  L 1409 794  L 1409 0  L 750 0  L 750 794  z M 750 3309  L 1409 3309  L 1409 2516  L 750 2516  L 750 3309  z "
                   transform="scale(0.015625)" />
              </defs>
              <use
                 xlink:href="#DejaVuSans-30"
                 id="use29" />
              <use
                 xlink:href="#DejaVuSans-30"
                 transform="translate(63.623047 0)"
                 id="use31" />
              <use
                 xlink:href="#DejaVuSans-3a"
                 transform="translate(127.246094 0)"
                 id="use33" />
              <use
                 xlink:href="#DejaVuSans-30"
                 transform="translate(160.9375 0)"
                 id="use35" />
              <use
                 xlink:href="#DejaVuSans-30"
                 transform="translate(224.560547 0)"
                 id="use37" />
            </g>
          </g>
        </g>
        <g
           id="xtick_2">
          <g
             id="line2d_3">
            <path
               d="M 128.715763 176.753451  L 128.715763 10.8  "
               clip-path="url(#pc100ea07c9)"
               style="fill: none; stroke: #b0b0b0; stroke-opacity: 0.3; stroke-width: 0.5; stroke-linecap: square"
               id="path43" />
          </g>
          <g
             id="line2d_4">
            <g
               id="g48">
              <use
                 xlink:href="#m18fcddc699"
                 x="128.715763"
                 y="176.753451"
                 style="stroke: #000000; stroke-width: 0.8"
                 id="use46" />
            </g>
          </g>
          <g
             id="text_2">
            <!-- 01:00 -->
            <g
               transform="translate(122.125528 204.354124) rotate(-45) scale(0.08 -0.08)"
               id="g64">
              <defs
                 id="defs52">
                <path
                   id="DejaVuSans-31"
                   d="M 794 531  L 1825 531  L 1825 4091  L 703 3866  L 703 4441  L 1819 4666  L 2450 4666  L 2450 531  L 3481 531  L 3481 0  L 794 0  L 794 531  z "
                   transform="scale(0.015625)" />
              </defs>
              <use
                 xlink:href="#DejaVuSans-30"
                 id="use54" />
              <use
                 xlink:href="#DejaVuSans-31"
                 transform="translate(63.623047 0)"
                 id="use56" />
              <use
                 xlink:href="#DejaVuSans-3a"
                 transform="translate(127.246094 0)"
                 id="use58" />
              <use
                 xlink:href="#DejaVuSans-30"
                 transform="translate(160.9375 0)"
                 id="use60" />
              <use
                 xlink:href="#DejaVuSans-30"
                 transform="translate(224.560547 0)"
                 id="use62" />
            </g>
          </g>
        </g>
        <g
           id="xtick_3">
          <g
             id="line2d_5">
            <path
               d="M 175.20743 176.753451  L 175.20743 10.8  "
               clip-path="url(#pc100ea07c9)"
               style="fill: none; stroke: #b0b0b0; stroke-opacity: 0.3; stroke-width: 0.5; stroke-linecap: square"
               id="path68" />
          </g>
          <g
             id="line2d_6">
            <g
               id="g73">
              <use
                 xlink:href="#m18fcddc699"
                 x="175.20743"
                 y="176.753451"
                 style="stroke: #000000; stroke-width: 0.8"
                 id="use71" />
            </g>
          </g>
          <g
             id="text_3">
            <!-- 02:00 -->
            <g
               transform="translate(168.617194 204.354124) rotate(-45) scale(0.08 -0.08)"
               id="g89">
              <defs
                 id="defs77">
                <path
                   id="DejaVuSans-32"
                   d="M 1228 531  L 3431 531  L 3431 0  L 469 0  L 469 531  Q 828 903 1448 1529  Q 2069 2156 2228 2338  Q 2531 2678 2651 2914  Q 2772 3150 2772 3378  Q 2772 3750 2511 3984  Q 2250 4219 1831 4219  Q 1534 4219 1204 4116  Q 875 4013 500 3803  L 500 4441  Q 881 4594 1212 4672  Q 1544 4750 1819 4750  Q 2544 4750 2975 4387  Q 3406 4025 3406 3419  Q 3406 3131 3298 2873  Q 3191 2616 2906 2266  Q 2828 2175 2409 1742  Q 1991 1309 1228 531  z "
                   transform="scale(0.015625)" />
              </defs>
              <use
                 xlink:href="#DejaVuSans-30"
                 id="use79" />
              <use
                 xlink:href="#DejaVuSans-32"
                 transform="translate(63.623047 0)"
                 id="use81" />
              <use
                 xlink:href="#DejaVuSans-3a"
                 transform="translate(127.246094 0)"
                 id="use83" />
              <use
                 xlink:href="#DejaVuSans-30"
                 transform="translate(160.9375 0)"
                 id="use85" />
              <use
                 xlink:href="#DejaVuSans-30"
                 transform="translate(224.560547 0)"
                 id="use87" />
            </g>
          </g>
        </g>
        <g
           id="xtick_4">
          <g
             id="line2d_7">
            <path
               d="M 221.699096 176.753451  L 221.699096 10.8  "
               clip-path="url(#pc100ea07c9)"
               style="fill: none; stroke: #b0b0b0; stroke-opacity: 0.3; stroke-width: 0.5; stroke-linecap: square"
               id="path93" />
          </g>
          <g
             id="line2d_8">
            <g
               id="g98">
              <use
                 xlink:href="#m18fcddc699"
                 x="221.699096"
                 y="176.753451"
                 style="stroke: #000000; stroke-width: 0.8"
                 id="use96" />
            </g>
          </g>
          <g
             id="text_4">
            <!-- 03:00 -->
            <g
               transform="translate(215.108861 204.354124) rotate(-45) scale(0.08 -0.08)"
               id="g114">
              <defs
                 id="defs102">
                <path
                   id="DejaVuSans-33"
                   d="M 2597 2516  Q 3050 2419 3304 2112  Q 3559 1806 3559 1356  Q 3559 666 3084 287  Q 2609 -91 1734 -91  Q 1441 -91 1130 -33  Q 819 25 488 141  L 488 750  Q 750 597 1062 519  Q 1375 441 1716 441  Q 2309 441 2620 675  Q 2931 909 2931 1356  Q 2931 1769 2642 2001  Q 2353 2234 1838 2234  L 1294 2234  L 1294 2753  L 1863 2753  Q 2328 2753 2575 2939  Q 2822 3125 2822 3475  Q 2822 3834 2567 4026  Q 2313 4219 1838 4219  Q 1578 4219 1281 4162  Q 984 4106 628 3988  L 628 4550  Q 988 4650 1302 4700  Q 1616 4750 1894 4750  Q 2613 4750 3031 4423  Q 3450 4097 3450 3541  Q 3450 3153 3228 2886  Q 3006 2619 2597 2516  z "
                   transform="scale(0.015625)" />
              </defs>
              <use
                 xlink:href="#DejaVuSans-30"
                 id="use104" />
              <use
                 xlink:href="#DejaVuSans-33"
                 transform="translate(63.623047 0)"
                 id="use106" />
              <use
                 xlink:href="#DejaVuSans-3a"
                 transform="translate(127.246094 0)"
                 id="use108" />
              <use
                 xlink:href="#DejaVuSans-30"
                 transform="translate(160.9375 0)"
                 id="use110" />
              <use
                 xlink:href="#DejaVuSans-30"
                 transform="translate(224.560547 0)"
                 id="use112" />
            </g>
          </g>
        </g>
        <g
           id="xtick_5">
          <g
             id="line2d_9">
            <path
               d="M 268.190763 176.753451  L 268.190763 10.8  "
               clip-path="url(#pc100ea07c9)"
               style="fill: none; stroke: #b0b0b0; stroke-opacity: 0.3; stroke-width: 0.5; stroke-linecap: square"
               id="path118" />
          </g>
          <g
             id="line2d_10">
            <g
               id="g123">
              <use
                 xlink:href="#m18fcddc699"
                 x="268.190763"
                 y="176.753451"
                 style="stroke: #000000; stroke-width: 0.8"
                 id="use121" />
            </g>
          </g>
          <g
             id="text_5">
            <!-- 04:00 -->
            <g
               transform="translate(261.600528 204.354124) rotate(-45) scale(0.08 -0.08)"
               id="g139">
              <defs
                 id="defs127">
                <path
                   id="DejaVuSans-34"
                   d="M 2419 4116  L 825 1625  L 2419 1625  L 2419 4116  z M 2253 4666  L 3047 4666  L 3047 1625  L 3713 1625  L 3713 1100  L 3047 1100  L 3047 0  L 2419 0  L 2419 1100  L 313 1100  L 313 1709  L 2253 4666  z "
                   transform="scale(0.015625)" />
              </defs>
              <use
                 xlink:href="#DejaVuSans-30"
                 id="use129" />
              <use
                 xlink:href="#DejaVuSans-34"
                 transform="translate(63.623047 0)"
                 id="use131" />
              <use
                 xlink:href="#DejaVuSans-3a"
                 transform="translate(127.246094 0)"
                 id="use133" />
              <use
                 xlink:href="#DejaVuSans-30"
                 transform="translate(160.9375 0)"
                 id="use135" />
              <use
                 xlink:href="#DejaVuSans-30"
                 transform="translate(224.560547 0)"
                 id="use137" />
            </g>
          </g>
        </g>
        <g
           id="xtick_6">
          <g
             id="line2d_11">
            <path
               d="M 314.68243 176.753451  L 314.68243 10.8  "
               clip-path="url(#pc100ea07c9)"
               style="fill: none; stroke: #b0b0b0; stroke-opacity: 0.3; stroke-width: 0.5; stroke-linecap: square"
               id="path143" />
          </g>
          <g
             id="line2d_12">
            <g
               id="g148">
              <use
                 xlink:href="#m18fcddc699"
                 x="314.68243"
                 y="176.753451"
                 style="stroke: #000000; stroke-width: 0.8"
                 id="use146" />
            </g>
          </g>
          <g
             id="text_6">
            <!-- 05:00 -->
            <g
               transform="translate(308.092194 204.354124) rotate(-45) scale(0.08 -0.08)"
               id="g164">
              <defs
                 id="defs152">
                <path
                   id="DejaVuSans-35"
                   d="M 691 4666  L 3169 4666  L 3169 4134  L 1269 4134  L 1269 2991  Q 1406 3038 1543 3061  Q 1681 3084 1819 3084  Q 2600 3084 3056 2656  Q 3513 2228 3513 1497  Q 3513 744 3044 326  Q 2575 -91 1722 -91  Q 1428 -91 1123 -41  Q 819 9 494 109  L 494 744  Q 775 591 1075 516  Q 1375 441 1709 441  Q 2250 441 2565 725  Q 2881 1009 2881 1497  Q 2881 1984 2565 2268  Q 2250 2553 1709 2553  Q 1456 2553 1204 2497  Q 953 2441 691 2322  L 691 4666  z "
                   transform="scale(0.015625)" />
              </defs>
              <use
                 xlink:href="#DejaVuSans-30"
                 id="use154" />
              <use
                 xlink:href="#DejaVuSans-35"
                 transform="translate(63.623047 0)"
                 id="use156" />
              <use
                 xlink:href="#DejaVuSans-3a"
                 transform="translate(127.246094 0)"
                 id="use158" />
              <use
                 xlink:href="#DejaVuSans-30"
                 transform="translate(160.9375 0)"
                 id="use160" />
              <use
                 xlink:href="#DejaVuSans-30"
                 transform="translate(224.560547 0)"
                 id="use162" />
            </g>
          </g>
        </g>
        <g
           id="xtick_7">
          <g
             id="line2d_13">
            <path
               d="M 361.174096 176.753451  L 361.174096 10.8  "
               clip-path="url(#pc100ea07c9)"
               style="fill: none; stroke: #b0b0b0; stroke-opacity: 0.3; stroke-width: 0.5; stroke-linecap: square"
               id="path168" />
          </g>
          <g
             id="line2d_14">
            <g
               id="g173">
              <use
                 xlink:href="#m18fcddc699"
                 x="361.174096"
                 y="176.753451"
                 style="stroke: #000000; stroke-width: 0.8"
                 id="use171" />
            </g>
          </g>
          <g
             id="text_7">
            <!-- 06:00 -->
            <g
               transform="translate(354.583861 204.354124) rotate(-45) scale(0.08 -0.08)"
               id="g189">
              <defs
                 id="defs177">
                <path
                   id="DejaVuSans-36"
                   d="M 2113 2584  Q 1688 2584 1439 2293  Q 1191 2003 1191 1497  Q 1191 994 1439 701  Q 1688 409 2113 409  Q 2538 409 2786 701  Q 3034 994 3034 1497  Q 3034 2003 2786 2293  Q 2538 2584 2113 2584  z M 3366 4563  L 3366 3988  Q 3128 4100 2886 4159  Q 2644 4219 2406 4219  Q 1781 4219 1451 3797  Q 1122 3375 1075 2522  Q 1259 2794 1537 2939  Q 1816 3084 2150 3084  Q 2853 3084 3261 2657  Q 3669 2231 3669 1497  Q 3669 778 3244 343  Q 2819 -91 2113 -91  Q 1303 -91 875 529  Q 447 1150 447 2328  Q 447 3434 972 4092  Q 1497 4750 2381 4750  Q 2619 4750 2861 4703  Q 3103 4656 3366 4563  z "
                   transform="scale(0.015625)" />
              </defs>
              <use
                 xlink:href="#DejaVuSans-30"
                 id="use179" />
              <use
                 xlink:href="#DejaVuSans-36"
                 transform="translate(63.623047 0)"
                 id="use181" />
              <use
                 xlink:href="#DejaVuSans-3a"
                 transform="translate(127.246094 0)"
                 id="use183" />
              <use
                 xlink:href="#DejaVuSans-30"
                 transform="translate(160.9375 0)"
                 id="use185" />
              <use
                 xlink:href="#DejaVuSans-30"
                 transform="translate(224.560547 0)"
                 id="use187" />
            </g>
          </g>
        </g>
        <g
           id="xtick_8">
          <g
             id="line2d_15">
            <path
               d="M 407.665763 176.753451  L 407.665763 10.8  "
               clip-path="url(#pc100ea07c9)"
               style="fill: none; stroke: #b0b0b0; stroke-opacity: 0.3; stroke-width: 0.5; stroke-linecap: square"
               id="path193" />
          </g>
          <g
             id="line2d_16">
            <g
               id="g198">
              <use
                 xlink:href="#m18fcddc699"
                 x="407.665763"
                 y="176.753451"
                 style="stroke: #000000; stroke-width: 0.8"
                 id="use196" />
            </g>
          </g>
          <g
             id="text_8">
            <!-- 07:00 -->
            <g
               transform="translate(401.075528 204.354124) rotate(-45) scale(0.08 -0.08)"
               id="g214">
              <defs
                 id="defs202">
                <path
                   id="DejaVuSans-37"
                   d="M 525 4666  L 3525 4666  L 3525 4397  L 1831 0  L 1172 0  L 2766 4134  L 525 4134  L 525 4666  z "
                   transform="scale(0.015625)" />
              </defs>
              <use
                 xlink:href="#DejaVuSans-30"
                 id="use204" />
              <use
                 xlink:href="#DejaVuSans-37"
                 transform="translate(63.623047 0)"
                 id="use206" />
              <use
                 xlink:href="#DejaVuSans-3a"
                 transform="translate(127.246094 0)"
                 id="use208" />
              <use
                 xlink:href="#DejaVuSans-30"
                 transform="translate(160.9375 0)"
                 id="use210" />
              <use
                 xlink:href="#DejaVuSans-30"
                 transform="translate(224.560547 0)"
                 id="use212" />
            </g>
          </g>
        </g>
        <g
           id="xtick_9">
          <g
             id="line2d_17">
            <path
               d="M 454.15743 176.753451  L 454.15743 10.8  "
               clip-path="url(#pc100ea07c9)"
               style="fill: none; stroke: #b0b0b0; stroke-opacity: 0.3; stroke-width: 0.5; stroke-linecap: square"
               id="path218" />
          </g>
          <g
             id="line2d_18">
            <g
               id="g223">
              <use
                 xlink:href="#m18fcddc699"
                 x="454.15743"
                 y="176.753451"
                 style="stroke: #000000; stroke-width: 0.8"
                 id="use221" />
            </g>
          </g>
          <g
             id="text_9">
            <!-- 08:00 -->
            <g
               transform="translate(447.567194 204.354124) rotate(-45) scale(0.08 -0.08)"
               id="g239">
              <defs
                 id="defs227">
                <path
                   id="DejaVuSans-38"
                   d="M 2034 2216  Q 1584 2216 1326 1975  Q 1069 1734 1069 1313  Q 1069 891 1326 650  Q 1584 409 2034 409  Q 2484 409 2743 651  Q 3003 894 3003 1313  Q 3003 1734 2745 1975  Q 2488 2216 2034 2216  z M 1403 2484  Q 997 2584 770 2862  Q 544 3141 544 3541  Q 544 4100 942 4425  Q 1341 4750 2034 4750  Q 2731 4750 3128 4425  Q 3525 4100 3525 3541  Q 3525 3141 3298 2862  Q 3072 2584 2669 2484  Q 3125 2378 3379 2068  Q 3634 1759 3634 1313  Q 3634 634 3220 271  Q 2806 -91 2034 -91  Q 1263 -91 848 271  Q 434 634 434 1313  Q 434 1759 690 2068  Q 947 2378 1403 2484  z M 1172 3481  Q 1172 3119 1398 2916  Q 1625 2713 2034 2713  Q 2441 2713 2670 2916  Q 2900 3119 2900 3481  Q 2900 3844 2670 4047  Q 2441 4250 2034 4250  Q 1625 4250 1398 4047  Q 1172 3844 1172 3481  z "
                   transform="scale(0.015625)" />
              </defs>
              <use
                 xlink:href="#DejaVuSans-30"
                 id="use229" />
              <use
                 xlink:href="#DejaVuSans-38"
                 transform="translate(63.623047 0)"
                 id="use231" />
              <use
                 xlink:href="#DejaVuSans-3a"
                 transform="translate(127.246094 0)"
                 id="use233" />
              <use
                 xlink:href="#DejaVuSans-30"
                 transform="translate(160.9375 0)"
                 id="use235" />
              <use
                 xlink:href="#DejaVuSans-30"
                 transform="translate(224.560547 0)"
                 id="use237" />
            </g>
          </g>
        </g>
        <g
           id="xtick_10">
          <g
             id="line2d_19">
            <path
               d="M 500.649096 176.753451  L 500.649096 10.8  "
               clip-path="url(#pc100ea07c9)"
               style="fill: none; stroke: #b0b0b0; stroke-opacity: 0.3; stroke-width: 0.5; stroke-linecap: square"
               id="path243" />
          </g>
          <g
             id="line2d_20">
            <g
               id="g248">
              <use
                 xlink:href="#m18fcddc699"
                 x="500.649096"
                 y="176.753451"
                 style="stroke: #000000; stroke-width: 0.8"
                 id="use246" />
            </g>
          </g>
          <g
             id="text_10">
            <!-- 09:00 -->
            <g
               transform="translate(494.058861 204.354124) rotate(-45) scale(0.08 -0.08)"
               id="g264">
              <defs
                 id="defs252">
                <path
                   id="DejaVuSans-39"
                   d="M 703 97  L 703 672  Q 941 559 1184 500  Q 1428 441 1663 441  Q 2288 441 2617 861  Q 2947 1281 2994 2138  Q 2813 1869 2534 1725  Q 2256 1581 1919 1581  Q 1219 1581 811 2004  Q 403 2428 403 3163  Q 403 3881 828 4315  Q 1253 4750 1959 4750  Q 2769 4750 3195 4129  Q 3622 3509 3622 2328  Q 3622 1225 3098 567  Q 2575 -91 1691 -91  Q 1453 -91 1209 -44  Q 966 3 703 97  z M 1959 2075  Q 2384 2075 2632 2365  Q 2881 2656 2881 3163  Q 2881 3666 2632 3958  Q 2384 4250 1959 4250  Q 1534 4250 1286 3958  Q 1038 3666 1038 3163  Q 1038 2656 1286 2365  Q 1534 2075 1959 2075  z "
                   transform="scale(0.015625)" />
              </defs>
              <use
                 xlink:href="#DejaVuSans-30"
                 id="use254" />
              <use
                 xlink:href="#DejaVuSans-39"
                 transform="translate(63.623047 0)"
                 id="use256" />
              <use
                 xlink:href="#DejaVuSans-3a"
                 transform="translate(127.246094 0)"
                 id="use258" />
              <use
                 xlink:href="#DejaVuSans-30"
                 transform="translate(160.9375 0)"
                 id="use260" />
              <use
                 xlink:href="#DejaVuSans-30"
                 transform="translate(224.560547 0)"
                 id="use262" />
            </g>
          </g>
        </g>
        <g
           id="xtick_11">
          <g
             id="line2d_21">
            <path
               d="M 547.140763 176.753451  L 547.140763 10.8  "
               clip-path="url(#pc100ea07c9)"
               style="fill: none; stroke: #b0b0b0; stroke-opacity: 0.3; stroke-width: 0.5; stroke-linecap: square"
               id="path268" />
          </g>
          <g
             id="line2d_22">
            <g
               id="g273">
              <use
                 xlink:href="#m18fcddc699"
                 x="547.140763"
                 y="176.753451"
                 style="stroke: #000000; stroke-width: 0.8"
                 id="use271" />
            </g>
          </g>
          <g
             id="text_11">
            <!-- 10:00 -->
            <g
               transform="translate(540.550528 204.354124) rotate(-45) scale(0.08 -0.08)"
               id="g286">
              <use
                 xlink:href="#DejaVuSans-31"
                 id="use276" />
              <use
                 xlink:href="#DejaVuSans-30"
                 transform="translate(63.623047 0)"
                 id="use278" />
              <use
                 xlink:href="#DejaVuSans-3a"
                 transform="translate(127.246094 0)"
                 id="use280" />
              <use
                 xlink:href="#DejaVuSans-30"
                 transform="translate(160.9375 0)"
                 id="use282" />
              <use
                 xlink:href="#DejaVuSans-30"
                 transform="translate(224.560547 0)"
                 id="use284" />
            </g>
          </g>
        </g>
        <g
           id="xtick_12">
          <g
             id="line2d_23">
            <path
               d="M 593.63243 176.753451  L 593.63243 10.8  "
               clip-path="url(#pc100ea07c9)"
               style="fill: none; stroke: #b0b0b0; stroke-opacity: 0.3; stroke-width: 0.5; stroke-linecap: square"
               id="path290" />
          </g>
          <g
             id="line2d_24">
            <g
               id="g295">
              <use
                 xlink:href="#m18fcddc699"
                 x="593.63243"
                 y="176.753451"
                 style="stroke: #000000; stroke-width: 0.8"
                 id="use293" />
            </g>
          </g>
          <g
             id="text_12">
            <!-- 11:00 -->
            <g
               transform="translate(587.042194 204.354124) rotate(-45) scale(0.08 -0.08)"
               id="g308">
              <use
                 xlink:href="#DejaVuSans-31"
                 id="use298" />
              <use
                 xlink:href="#DejaVuSans-31"
                 transform="translate(63.623047 0)"
                 id="use300" />
              <use
                 xlink:href="#DejaVuSans-3a"
                 transform="translate(127.246094 0)"
                 id="use302" />
              <use
                 xlink:href="#DejaVuSans-30"
                 transform="translate(160.9375 0)"
                 id="use304" />
              <use
                 xlink:href="#DejaVuSans-30"
                 transform="translate(224.560547 0)"
                 id="use306" />
            </g>
          </g>
        </g>
      </g>
      <g
         id="matplotlib.axis_2">
        <g
           id="ytick_1">
          <g
             id="line2d_25">
            <path
               d="M 57.44 176.753451  L 615.34 176.753451  "
               clip-path="url(#pc100ea07c9)"
               style="fill: none; stroke: #b0b0b0; stroke-opacity: 0.3; stroke-width: 0.5; stroke-linecap: square"
               id="path313" />
          </g>
          <g
             id="line2d_26">
            <defs
               id="defs317">
              <path
                 id="m585675c861"
                 d="M 0 0  L -3.5 0  "
                 style="stroke: #000000; stroke-width: 0.8" />
            </defs>
            <g
               id="g321">
              <use
                 xlink:href="#m585675c861"
                 x="57.44"
                 y="176.753451"
                 style="stroke: #000000; stroke-width: 0.8"
                 id="use319" />
            </g>
          </g>
          <g
             id="text_13">
            <!-- 400 -->
            <g
               style="fill: #2e7d32"
               transform="translate(31.3525 180.55267) scale(0.1 -0.1)"
               id="g330">
              <use
                 xlink:href="#DejaVuSans-34"
                 id="use324" />
              <use
                 xlink:href="#DejaVuSans-30"
                 transform="translate(63.623047 0)"
                 id="use326" />
              <use
                 xlink:href="#DejaVuSans-30"
                 transform="translate(127.246094 0)"
                 id="use328" />
            </g>
          </g>
        </g>
        <g
           id="ytick_2">
          <g
             id="line2d_27">
            <path
               d="M 57.44 146.580097  L 615.34 146.580097  "
               clip-path="url(#pc100ea07c9)"
               style="fill: none; stroke: #b0b0b0; stroke-opacity: 0.3; stroke-width: 0.5; stroke-linecap: square"
               id="path334" />
          </g>
          <g
             id="line2d_28">
            <g
               id="g339">
              <use
                 xlink:href="#m585675c861"
                 x="57.44"
                 y="146.580097"
                 style="stroke: #000000; stroke-width: 0.8"
                 id="use337" />
            </g>
          </g>
          <g
             id="text_14">
            <!-- 600 -->
            <g
               style="fill: #2e7d32"
               transform="translate(31.3525 150.379315) scale(0.1 -0.1)"
               id="g348">
              <use
                 xlink:href="#DejaVuSans-36"
                 id="use342" />
              <use
                 xlink:href="#DejaVuSans-30"
                 transform="translate(63.623047 0)"
                 id="use344" />
              <use
                 xlink:href="#DejaVuSans-30"
                 transform="translate(127.246094 0)"
                 id="use346" />
            </g>
          </g>
        </g>
        <g
           id="ytick_3">
          <g
             id="line2d_29">
            <path
               d="M 57.44 116.406742  L 615.34 116.406742  "
               clip-path="url(#pc100ea07c9)"
               style="fill: none; stroke: #b0b0b0; stroke-opacity: 0.3; stroke-width: 0.5; stroke-linecap: square"
               id="path352" />
          </g>
          <g
             id="line2d_30">
            <g
               id="g357">
              <use
                 xlink:href="#m585675c861"
                 x="57.44"
                 y="116.406742"
                 style="stroke: #000000; stroke-width: 0.8"
                 id="use355" />
            </g>
          </g>
          <g
             id="text_15">
            <!-- 800 -->
            <g
               style="fill: #2e7d32"
               transform="translate(31.3525 120.205961) scale(0.1 -0.1)"
               id="g366">
              <use
                 xlink:href="#DejaVuSans-38"
                 id="use360" />
              <use
                 xlink:href="#DejaVuSans-30"
                 transform="translate(63.623047 0)"
                 id="use362" />
              <use
                 xlink:href="#DejaVuSans-30"
                 transform="translate(127.246094 0)"
                 id="use364" />
            </g>
          </g>
        </g>
        <g
           id="ytick_4">
          <g
             id="line2d_31">
            <path
               d="M 57.44 86.233387  L 615.34 86.233387  "
               clip-path="url(#pc100ea07c9)"
               style="fill: none; stroke: #b0b0b0; stroke-opacity: 0.3; stroke-width: 0.5; stroke-linecap: square"
               id="path370" />
          </g>
          <g
             id="line2d_32">
            <g
               id="g375">
              <use
                 xlink:href="#m585675c861"
                 x="57.44"
                 y="86.233387"
                 style="stroke: #000000; stroke-width: 0.8"
                 id="use373" />
            </g>
          </g>
          <g
             id="text_16">
            <!-- 1000 -->
            <g
               style="fill: #2e7d32"
               transform="translate(24.99 90.032606) scale(0.1 -0.1)"
               id="g386">
              <use
                 xlink:href="#DejaVuSans-31"
                 id="use378" />
              <use
                 xlink:href="#DejaVuSans-30"
                 transform="translate(63.623047 0)"
                 id="use380" />
              <use
                 xlink:href="#DejaVuSans-30"
                 transform="translate(127.246094 0)"
                 id="use382" />
              <use
                 xlink:href="#DejaVuSans-30"
                 transform="translate(190.869141 0)"
                 id="use384" />
            </g>
          </g>
        </g>
        <g
           id="ytick_5">
          <g
             id="line2d_33">
            <path
               d="M 57.44 56.060032  L 615.34 56.060032  "
               clip-path="url(#pc100ea07c9)"
               style="fill: none; stroke: #b0b0b0; stroke-opacity: 0.3; stroke-width: 0.5; stroke-linecap: square"
               id="path390" />
          </g>
          <g
             id="line2d_34">
            <g
               id="g395">
              <use
                 xlink:href="#m585675c861"
                 x="57.44"
                 y="56.060032"
                 style="stroke: #000000; stroke-width: 0.8"
                 id="use393" />
            </g>
          </g>
          <g
             id="text_17">
            <!-- 1200 -->
            <g
               style="fill: #2e7d32"
               transform="translate(24.99 59.859251) scale(0.1 -0.1)"
               id="g406">
              <use
                 xlink:href="#DejaVuSans-31"
                 id="use398" />
              <use
                 xlink:href="#DejaVuSans-32"
                 transform="translate(63.623047 0)"
                 id="use400" />
              <use
                 xlink:href="#DejaVuSans-30"
                 transform="translate(127.246094 0)"
                 id="use402" />
              <use
                 xlink:href="#DejaVuSans-30"
                 transform="translate(190.869141 0)"
                 id="use404" />
            </g>
          </g>
        </g>
        <g
           id="ytick_6">
          <g
             id="line2d_35">
            <path
               d="M 57.44 25.886677  L 615.34 25.886677  "
               clip-path="url(#pc100ea07c9)"
               style="fill: none; stroke: #b0b0b0; stroke-opacity: 0.3; stroke-width: 0.5; stroke-linecap: square"
               id="path410" />
          </g>
          <g
             id="line2d_36">
            <g
               id="g415">
              <use
                 xlink:href="#m585675c861"
                 x="57.44"
                 y="25.886677"
                 style="stroke: #000000; stroke-width: 0.8"
                 id="use413" />
            </g>
          </g>
          <g
             id="text_18">
            <!-- 1400 -->
            <g
               style="fill: #2e7d32"
               transform="translate(24.99 29.685896) scale(0.1 -0.1)"
               id="g426">
              <use
                 xlink:href="#DejaVuSans-31"
                 id="use418" />
              <use
                 xlink:href="#DejaVuSans-34"
                 transform="translate(63.623047 0)"
                 id="use420" />
              <use
                 xlink:href="#DejaVuSans-30"
                 transform="translate(127.246094 0)"
                 id="use422" />
              <use
                 xlink:href="#DejaVuSans-30"
                 transform="translate(190.869141 0)"
                 id="use424" />
            </g>
          </g>
        </g>
        <g
           id="text_19">
          <!-- CO2 (x10⁻⁶) -->
          <g
             style="fill: #2e7d32"
             transform="translate(18.910312 123.841569) rotate(-90) scale(0.1 -0.1)"
             id="g462">
            <defs
               id="defs438">
              <path
                 id="DejaVuSans-43"
                 d="M 4122 4306  L 4122 3641  Q 3803 3938 3442 4084  Q 3081 4231 2675 4231  Q 1875 4231 1450 3742  Q 1025 3253 1025 2328  Q 1025 1406 1450 917  Q 1875 428 2675 428  Q 3081 428 3442 575  Q 3803 722 4122 1019  L 4122 359  Q 3791 134 3420 21  Q 3050 -91 2638 -91  Q 1578 -91 968 557  Q 359 1206 359 2328  Q 359 3453 968 4101  Q 1578 4750 2638 4750  Q 3056 4750 3426 4639  Q 3797 4528 4122 4306  z "
                 transform="scale(0.015625)" />
              <path
                 id="DejaVuSans-4f"
                 d="M 2522 4238  Q 1834 4238 1429 3725  Q 1025 3213 1025 2328  Q 1025 1447 1429 934  Q 1834 422 2522 422  Q 3209 422 3611 934  Q 4013 1447 4013 2328  Q 4013 3213 3611 3725  Q 3209 4238 2522 4238  z M 2522 4750  Q 3503 4750 4090 4092  Q 4678 3434 4678 2328  Q 4678 1225 4090 567  Q 3503 -91 2522 -91  Q 1538 -91 948 565  Q 359 1222 359 2328  Q 359 3434 948 4092  Q 1538 4750 2522 4750  z "
                 transform="scale(0.015625)" />
              <path
                 id="DejaVuSans-20"
                 transform="scale(0.015625)" />
              <path
                 id="DejaVuSans-28"
                 d="M 1984 4856  Q 1566 4138 1362 3434  Q 1159 2731 1159 2009  Q 1159 1288 1364 580  Q 1569 -128 1984 -844  L 1484 -844  Q 1016 -109 783 600  Q 550 1309 550 2009  Q 550 2706 781 3412  Q 1013 4119 1484 4856  L 1984 4856  z "
                 transform="scale(0.015625)" />
              <path
                 id="DejaVuSans-78"
                 d="M 3513 3500  L 2247 1797  L 3578 0  L 2900 0  L 1881 1375  L 863 0  L 184 0  L 1544 1831  L 300 3500  L 978 3500  L 1906 2253  L 2834 3500  L 3513 3500  z "
                 transform="scale(0.015625)" />
              <path
                 id="DejaVuSans-207b"
                 d="M 428 3359  L 2950 3359  L 2950 3063  L 428 3063  L 428 3359  z "
                 transform="scale(0.015625)" />
              <path
                 id="DejaVuSans-2076"
                 d="M 1359 3541  Q 1084 3541 925 3378  Q 766 3213 766 2928  Q 766 2647 925 2484  Q 1084 2319 1359 2319  Q 1631 2319 1791 2484  Q 1950 2647 1950 2928  Q 1950 3213 1791 3378  Q 1631 3541 1359 3541  z M 2166 4647  L 2166 4325  Q 2013 4388 1856 4419  Q 1700 4453 1547 4453  Q 1147 4453 934 4219  Q 722 3981 691 3503  Q 809 3656 988 3738  Q 1169 3819 1381 3819  Q 1834 3819 2097 3581  Q 2359 3341 2359 2928  Q 2359 2531 2084 2284  Q 1813 2041 1359 2041  Q 838 2041 563 2387  Q 288 2734 288 3397  Q 288 4016 625 4381  Q 963 4750 1531 4750  Q 1684 4750 1841 4725  Q 1997 4697 2166 4647  z "
                 transform="scale(0.015625)" />
              <path
                 id="DejaVuSans-29"
                 d="M 513 4856  L 1013 4856  Q 1481 4119 1714 3412  Q 1947 2706 1947 2009  Q 1947 1309 1714 600  Q 1481 -109 1013 -844  L 513 -844  Q 928 -128 1133 580  Q 1338 1288 1338 2009  Q 1338 2731 1133 3434  Q 928 4138 513 4856  z "
                 transform="scale(0.015625)" />
            </defs>
            <use
               xlink:href="#DejaVuSans-43"
               id="use440" />
            <use
               xlink:href="#DejaVuSans-4f"
               transform="translate(69.824219 0)"
               id="use442" />
            <use
               xlink:href="#DejaVuSans-32"
               transform="translate(148.535156 0)"
               id="use444" />
            <use
               xlink:href="#DejaVuSans-20"
               transform="translate(212.158203 0)"
               id="use446" />
            <use
               xlink:href="#DejaVuSans-28"
               transform="translate(243.945312 0)"
               id="use448" />
            <use
               xlink:href="#DejaVuSans-78"
               transform="translate(282.958984 0)"
               id="use450" />
            <use
               xlink:href="#DejaVuSans-31"
               transform="translate(342.138672 0)"
               id="use452" />
            <use
               xlink:href="#DejaVuSans-30"
               transform="translate(405.761719 0)"
               id="use454" />
            <use
               xlink:href="#DejaVuSans-207b"
               transform="translate(469.384766 0)"
               id="use456" />
            <use
               xlink:href="#DejaVuSans-2076"
               transform="translate(522.167969 0)"
               id="use458" />
            <use
               xlink:href="#DejaVuSans-29"
               transform="translate(562.255859 0)"
               id="use460" />
          </g>
        </g>
      </g>
      <g
         id="line2d_37">
        <path
           d="M 57.596427 77.483114  L 58.43586 78.086581  L 59.275293 77.332247  L 60.12764 76.27618  L 60.967073 74.616645  L 61.806506 73.862312  L 62.645939 74.314912  L 63.485372 75.370979  L 64.337719 75.672713  L 65.177152 75.370979  L 66.016585 75.521846  L 66.856018 76.125313  L 67.69545 75.521846  L 68.547798 75.370979  L 69.387231 75.370979  L 70.226663 75.521846  L 71.066096 76.72878  L 71.918443 77.483114  L 72.757876 77.935714  L 73.597309 78.539181  L 74.436742 79.444382  L 75.276175 78.539181  L 76.128522 78.690048  L 76.967955 78.690048  L 77.807388 79.595249  L 78.659735 80.198716  L 79.499168 80.047849  L 80.338601 80.349583  L 81.190948 80.349583  L 82.030381 81.103917  L 82.869814 81.254783  L 83.709247 81.254783  L 84.54868 81.707384  L 85.401027 82.009117  L 87.079893 81.103917  L 87.93224 80.802183  L 88.771673 80.651316  L 89.611106 80.651316  L 90.450538 79.896982  L 91.302886 79.595249  L 92.981751 79.896982  L 93.821184 79.746116  L 94.673531 79.293515  L 95.512964 78.388315  L 96.352397 78.991782  L 97.204744 78.840915  L 98.044177 79.142649  L 98.88361 78.388315  L 99.723043 78.086581  L 100.57539 78.840915  L 101.414823 78.388315  L 102.254256 78.991782  L 103.106603 78.840915  L 103.946036 79.444382  L 104.785469 78.388315  L 105.624902 79.444382  L 106.477249 80.047849  L 107.316682 80.50045  L 108.156115 82.009117  L 109.008462 82.159984  L 109.847895 81.254783  L 110.687328 80.802183  L 111.526761 80.802183  L 112.379108 80.198716  L 113.218541 80.802183  L 114.910321 81.40565  L 116.589187 81.40565  L 117.441534 81.556517  L 119.120399 81.254783  L 119.959832 81.707384  L 120.81218 82.310851  L 122.491045 82.310851  L 123.330478 82.914318  L 124.182825 83.065185  L 125.022258 83.819519  L 125.861691 84.422986  L 126.701124 84.272119  L 127.553471 84.724719  L 128.392904 84.875586  L 129.232337 85.17732  L 130.07177 84.121252  L 130.924117 83.819519  L 131.76355 83.366918  L 132.602983 83.216051  L 133.442416 82.914318  L 135.134196 82.612584  L 135.973629 83.065185  L 136.825976 82.612584  L 137.665409 82.612584  L 138.504842 83.065185  L 139.357189 83.065185  L 141.888402 83.517785  L 142.727835 83.819519  L 143.567268 83.970385  L 144.4067 84.422986  L 145.259048 84.121252  L 146.098481 84.272119  L 146.937913 84.272119  L 147.777346 85.17732  L 149.469126 86.384254  L 150.308559 85.931653  L 151.147992 85.62992  L 152.000339 85.026453  L 152.839772 84.272119  L 153.679205 83.216051  L 154.518638 82.612584  L 155.358071 83.216051  L 157.049851 83.819519  L 157.889284 83.668652  L 158.741631 83.668652  L 159.581064 83.517785  L 160.420497 83.668652  L 161.25993 83.065185  L 162.099362 82.914318  L 162.95171 83.065185  L 163.791143 83.366918  L 164.630575 83.216051  L 165.482923 83.366918  L 166.322356 83.819519  L 167.161788 83.970385  L 168.001221 83.970385  L 168.853568 83.216051  L 170.545349 83.819519  L 171.384781 83.819519  L 172.224214 84.272119  L 173.076562 84.121252  L 173.915994 83.819519  L 174.755427 84.121252  L 175.607774 84.724719  L 178.97842 85.931653  L 179.830768 86.08252  L 180.6702 86.535121  L 181.522548 86.535121  L 182.361981 86.836854  L 183.201413 86.685987  L 184.893193 86.987721  L 185.745541 87.289454  L 186.584974 87.138588  L 187.424406 87.289454  L 189.116187 87.289454  L 189.968534 86.836854  L 190.807967 86.836854  L 191.647399 86.987721  L 193.33918 87.892921  L 194.178612 87.742055  L 195.03096 87.742055  L 195.870393 87.892921  L 197.562173 89.099856  L 198.401606 89.099856  L 199.241038 88.948989  L 200.093386 88.948989  L 200.932818 89.099856  L 201.772251 89.703323  L 202.611684 89.703323  L 203.464031 89.552456  L 204.303464 89.85419  L 205.995244 89.552456  L 206.834677 89.703323  L 207.67411 89.099856  L 208.513543 89.85419  L 209.36589 90.155923  L 210.205323 89.552456  L 211.044756 89.85419  L 211.897103 89.85419  L 213.575969 90.75939  L 214.415402 90.608523  L 215.267749 90.75939  L 216.107182 90.457657  L 216.946615 90.608523  L 217.798962 90.457657  L 218.638395 90.608523  L 220.317261 90.30679  L 221.169608 90.910257  L 222.009041 90.75939  L 222.848474 91.211991  L 224.540254 91.815458  L 226.219119 91.513724  L 227.071467 91.815458  L 227.910899 91.815458  L 228.750332 91.966324  L 229.60268 92.418925  L 230.442112 92.418925  L 231.281545 92.720658  L 232.133893 92.418925  L 232.973325 92.569791  L 234.665106 92.268058  L 235.504538 92.569791  L 236.356886 92.268058  L 237.196318 92.268058  L 238.035751 92.418925  L 239.727531 93.022392  L 240.579879 92.720658  L 241.419312 93.022392  L 242.258744 92.418925  L 243.111092 92.720658  L 243.950524 92.418925  L 244.789957 92.569791  L 245.642305 92.569791  L 246.481737 92.418925  L 247.32117 92.418925  L 248.173518 92.268058  L 249.01295 92.268058  L 249.852383 92.569791  L 252.383596 92.569791  L 253.235943 92.720658  L 256.606589 92.720658  L 257.458937 92.418925  L 258.298369 92.418925  L 259.150717 92.569791  L 259.990149 92.418925  L 260.829582 92.418925  L 261.68193 92.569791  L 262.521362 92.569791  L 263.360795 92.268058  L 264.213143 92.268058  L 265.052575 91.815458  L 266.744356 91.815458  L 267.583788 92.418925  L 268.423221 92.569791  L 269.262654 92.569791  L 270.115001 92.871525  L 270.954434 93.324125  L 271.806781 93.324125  L 273.485647 93.022392  L 274.337994 92.418925  L 275.177427 93.173259  L 276.029774 93.173259  L 276.869207 92.720658  L 277.721555 93.173259  L 278.560987 91.966324  L 279.40042 91.815458  L 280.252768 92.569791  L 281.0922 92.418925  L 281.931633 92.418925  L 282.771066 93.022392  L 283.623413 93.324125  L 284.462846 93.474992  L 285.302279 93.776726  L 286.994059 94.681926  L 287.833492 94.53106  L 288.685839 94.078459  L 289.525272 94.53106  L 290.364705 94.832793  L 291.217052 94.98366  L 292.056485 94.681926  L 292.908832 94.229326  L 293.748265 94.53106  L 294.587698 95.285393  L 295.440045 95.134527  L 296.279478 95.43626  L 297.118911 95.587127  L 297.971258 95.285393  L 298.810691 95.43626  L 299.650124 95.43626  L 300.502471 95.134527  L 301.341904 95.134527  L 302.181337 95.587127  L 303.02077 95.88886  L 303.873117 95.88886  L 304.71255 95.737994  L 308.083196 96.341461  L 308.922629 96.643194  L 309.774976 96.492328  L 310.614409 96.944928  L 311.453842 96.794061  L 312.306189 96.341461  L 313.145622 96.039727  L 313.985055 96.039727  L 315.676835 95.134527  L 316.516268 94.53106  L 317.368615 94.681926  L 318.208048 94.380193  L 319.047481 94.380193  L 319.886913 93.474992  L 320.739261 92.720658  L 321.578693 92.720658  L 322.418126 92.871525  L 323.270474 92.117191  L 325.801687 91.664591  L 326.641119 91.362857  L 330.851198 92.117191  L 331.690631 92.117191  L 332.542978 91.966324  L 334.221844 92.268058  L 335.061277 92.871525  L 337.59249 94.229326  L 339.28427 94.53106  L 340.123703 95.134527  L 340.963136 95.43626  L 341.815483 95.88886  L 342.654916 95.587127  L 343.494349 95.43626  L 344.333781 95.134527  L 345.186129 95.43626  L 346.025562 95.43626  L 346.864994 95.134527  L 347.704427 95.88886  L 348.556774 95.88886  L 349.396207 95.587127  L 350.23564 94.98366  L 351.92742 94.681926  L 352.766853 93.022392  L 353.606286 93.625859  L 354.458633 93.474992  L 355.298066 93.625859  L 356.137499 93.324125  L 358.668712 90.910257  L 360.347578 90.608523  L 361.187011 90.155923  L 362.039358 89.85419  L 362.878791 89.703323  L 363.718224 89.85419  L 364.557656 90.155923  L 366.249437 91.061124  L 367.928302 91.061124  L 368.780649 91.513724  L 369.620082 91.513724  L 370.459515 91.664591  L 371.298948 91.061124  L 372.151295 90.005056  L 372.990728 90.75939  L 373.830161 90.155923  L 375.521941 90.75939  L 376.361374 90.75939  L 377.200807 90.910257  L 378.04024 91.362857  L 378.892587 91.211991  L 379.73202 91.362857  L 380.571453 91.966324  L 381.410886 91.513724  L 382.263233 91.211991  L 383.102666 91.362857  L 383.942099 91.061124  L 384.781531 91.061124  L 385.620964 90.910257  L 386.473312 91.362857  L 387.312744 94.681926  L 388.152177 95.285393  L 388.99161 95.134527  L 389.843957 95.587127  L 390.68339 95.43626  L 391.522823 95.134527  L 392.362256 95.285393  L 393.201689 95.737994  L 394.893469 94.832793  L 396.572335 94.229326  L 397.424682 94.380193  L 398.264115 93.776726  L 399.103548 93.625859  L 399.955895 93.776726  L 400.795328 93.625859  L 401.634761 93.776726  L 402.474193 93.474992  L 403.326541 93.474992  L 404.165974 93.324125  L 405.005406 93.625859  L 407.536619 93.173259  L 408.376052 92.720658  L 409.215485 92.569791  L 410.907265 91.966324  L 411.746698 91.815458  L 412.586131 91.362857  L 414.277911 90.75939  L 415.117344 90.30679  L 415.956777 90.155923  L 416.79621 89.703323  L 418.48799 89.703323  L 419.327423 88.798122  L 420.166856 88.194655  L 421.019203 88.647255  L 421.858636 87.591188  L 422.698068 87.892921  L 423.537501 87.440321  L 424.376934 87.138588  L 426.908147 87.591188  L 428.599927 89.401589  L 429.43936 89.099856  L 430.278793 89.401589  L 431.118226 89.85419  L 431.970573 89.552456  L 433.649439 90.457657  L 434.488872 90.608523  L 435.328305 90.457657  L 436.180652 90.75939  L 437.020085 92.720658  L 437.859518 93.022392  L 438.69895 93.776726  L 439.538383 92.871525  L 440.390731 92.720658  L 442.069596 92.117191  L 442.909029 91.362857  L 443.748462 91.211991  L 444.600809 90.30679  L 445.440242 89.250722  L 447.119108 88.043788  L 447.958541 86.987721  L 448.810888 85.62992  L 449.650321 83.517785  L 450.489754 80.95305  L 451.329187 79.444382  L 452.168619 78.539181  L 453.020967 77.784848  L 453.860399 76.577913  L 454.699832 74.013178  L 455.539265 72.655377  L 456.378698 71.59931  L 457.231045 69.939775  L 458.070478 68.883708  L 458.909911 68.280241  L 460.601691 66.620706  L 461.441124 65.715506  L 462.280557 65.413772  L 463.11999 64.961172  L 463.972337 64.206838  L 464.81177 64.508572  L 465.651203 64.357705  L 466.490636 63.603371  L 468.182416 62.396437  L 469.861281 60.887769  L 471.540147 58.624767  L 472.37958 57.719567  L 473.219013 57.5687  L 474.910793 53.947897  L 475.750226 51.232295  L 476.589659 49.874494  L 477.429092 51.684896  L 478.268524 53.947897  L 479.120872 55.154832  L 479.960305 59.379101  L 480.799737 61.642103  L 481.63917 66.771573  L 482.478603 66.46984  L 483.318036 66.017239  L 484.157469 66.168106  L 485.009816 64.508572  L 485.849249 63.301637  L 486.688682 65.112039  L 487.528115 64.055971  L 488.367548 62.094703  L 489.206981 63.754238  L 490.046413 59.077368  L 490.898761 50.930562  L 492.577626 47.460626  L 493.417059 48.516693  L 494.256492 47.76236  L 495.095925 48.66756  L 495.948272 48.66756  L 496.787705 48.969294  L 497.627138 48.969294  L 498.466571 48.66756  L 500.158351 47.460626  L 500.997784 50.930562  L 501.837217 59.831702  L 502.689564 78.086581  L 503.528997 112.333339  L 504.36843 127.118283  L 505.220777 129.683018  L 506.06021 129.683018  L 506.912557 127.420016  L 507.75199 126.514816  L 508.591423 127.570883  L 509.430856 126.967416  L 510.283203 127.570883  L 511.122636 127.72175  L 511.962068 127.269149  L 512.814416 126.062215  L 513.653849 125.458748  L 514.493281 125.609615  L 515.345629 126.213082  L 517.024494 125.609615  L 518.716274 123.95008  L 519.555707 123.49748  L 520.39514 123.49748  L 521.247487 122.894013  L 522.926353 121.385345  L 523.7787 121.234479  L 524.618133 122.139679  L 525.457566 122.139679  L 527.149346 121.536212  L 527.988779 121.385345  L 528.828212 120.631011  L 529.680559 120.027544  L 530.519992 119.574944  L 531.359425 119.27321  L 533.890638 116.255875  L 534.742985 115.803275  L 536.421851 113.69114  L 537.274198 115.652408  L 538.953064 111.277271  L 539.805411 110.824671  L 541.484277 105.695201  L 542.32371 102.677865  L 543.176057 97.095795  L 544.01549 93.625859  L 546.546703 90.608523  L 547.386136 88.798122  L 548.225568 87.440321  L 549.077916 86.685987  L 549.917349 85.62992  L 550.756781 83.970385  L 551.596214 83.668652  L 552.448562 82.461718  L 554.127427 79.444382  L 555.819207 75.220112  L 556.65864 73.107978  L 557.498073 71.297576  L 558.337506 70.241509  L 560.029286 66.620706  L 560.868719 63.905104  L 563.399932 58.323034  L 564.239365 57.5687  L 565.078798 56.965233  L 565.931145 55.758299  L 566.770578 55.305698  L 567.610011 53.947897  L 568.449443 53.193563  L 569.301791 52.590096  L 570.141224 51.232295  L 570.980656 50.176228  L 571.820089 49.572761  L 573.511869 47.460626  L 574.351302 47.309759  L 575.190735 45.951958  L 576.030168 45.650225  L 576.869601 44.443291  L 577.709034 42.482023  L 578.561381 41.124222  L 579.400814 43.387223  L 580.240247 45.197624  L 581.07968 45.348491  L 581.919112 45.348491  L 582.758545 44.141557  L 583.610893 43.839823  L 584.450325 43.236356  L 586.129191 42.632889  L 586.968624 42.029422  L 587.820971 41.878555  L 589.499837 40.671621  L 590.33927 39.917287  L 591.178703 39.31382  L 592.03105 39.012087  L 592.870483 39.31382  L 593.709916 39.31382  L 594.549349 39.162953  L 595.388781 38.559486  L 596.241129 37.654286  L 597.080562 37.050819  L 597.919994 36.145618  L 598.759427 35.693018  L 599.59886 35.693018  L 600.451207 35.240417  L 602.130073 34.63695  L 602.969506 34.18435  L 603.821853 33.882616  L 604.661286 33.430016  L 605.500719 32.675682  L 607.179585 30.865281  L 608.019018 29.50748  L 608.871365 26.942745  L 609.710798 25.28321  L 610.550231 22.718475  L 611.389663 21.209807  L 612.229096 19.399406  L 613.068529 17.890738  L 613.907962 18.041605  L 614.760309 17.136405  L 614.760309 17.136405  "
           clip-path="url(#pc100ea07c9)"
           style="fill: none; stroke: #2e7d32; stroke-width: 2; stroke-linecap: square"
           id="path466" />
      </g>
      <g
         id="patch_3">
        <path
           d="M 57.44 176.753451  L 57.44 10.8  "
           style="fill: none; stroke: #000000; stroke-width: 0.8; stroke-linejoin: miter; stroke-linecap: square"
           id="path469" />
      </g>
      <g
         id="patch_4">
        <path
           d="M 615.34 176.753451  L 615.34 10.8  "
           style="fill: none; stroke: #000000; stroke-width: 0.8; stroke-linejoin: miter; stroke-linecap: square"
           id="path472" />
      </g>
      <g
         id="patch_5">
        <path
           d="M 57.44 176.753451  L 615.34 176.753451  "
           style="fill: none; stroke: #000000; stroke-width: 0.8; stroke-linejoin: miter; stroke-linecap: square"
           id="path475" />
      </g>
      <g
         id="patch_6">
        <path
           d="M 57.44 10.8  L 615.34 10.8  "
           style="fill: none; stroke: #000000; stroke-width: 0.8; stroke-linejoin: miter; stroke-linecap: square"
           id="path478" />
      </g>
    </g>
    <g
       id="axes_2">
      <g
         id="matplotlib.axis_3">
        <g
           id="ytick_7">
          <g
             id="line2d_38">
            <defs
               id="defs483">
              <path
                 id="m5a47799ec4"
                 d="M 0 0  L 3.5 0  "
                 style="stroke: #000000; stroke-width: 0.8" />
            </defs>
            <g
               id="g487">
              <use
                 xlink:href="#m5a47799ec4"
                 x="615.34"
                 y="137.448687"
                 style="stroke: #000000; stroke-width: 0.8"
                 id="use485" />
            </g>
          </g>
          <g
             id="text_20">
            <!-- 21.0 -->
            <g
               style="fill: #ff0000"
               transform="translate(622.34 141.247905) scale(0.1 -0.1)"
               id="g501">
              <defs
                 id="defs491">
                <path
                   id="DejaVuSans-2e"
                   d="M 684 794  L 1344 794  L 1344 0  L 684 0  L 684 794  z "
                   transform="scale(0.015625)" />
              </defs>
              <use
                 xlink:href="#DejaVuSans-32"
                 id="use493" />
              <use
                 xlink:href="#DejaVuSans-31"
                 transform="translate(63.623047 0)"
                 id="use495" />
              <use
                 xlink:href="#DejaVuSans-2e"
                 transform="translate(127.246094 0)"
                 id="use497" />
              <use
                 xlink:href="#DejaVuSans-30"
                 transform="translate(159.033203 0)"
                 id="use499" />
            </g>
          </g>
        </g>
        <g
           id="ytick_8">
          <g
             id="line2d_39">
            <g
               id="g507">
              <use
                 xlink:href="#m5a47799ec4"
                 x="615.34"
                 y="97.746904"
                 style="stroke: #000000; stroke-width: 0.8"
                 id="use505" />
            </g>
          </g>
          <g
             id="text_21">
            <!-- 21.5 -->
            <g
               style="fill: #ff0000"
               transform="translate(622.34 101.546123) scale(0.1 -0.1)"
               id="g518">
              <use
                 xlink:href="#DejaVuSans-32"
                 id="use510" />
              <use
                 xlink:href="#DejaVuSans-31"
                 transform="translate(63.623047 0)"
                 id="use512" />
              <use
                 xlink:href="#DejaVuSans-2e"
                 transform="translate(127.246094 0)"
                 id="use514" />
              <use
                 xlink:href="#DejaVuSans-35"
                 transform="translate(159.033203 0)"
                 id="use516" />
            </g>
          </g>
        </g>
        <g
           id="ytick_9">
          <g
             id="line2d_40">
            <g
               id="g524">
              <use
                 xlink:href="#m5a47799ec4"
                 x="615.34"
                 y="58.045121"
                 style="stroke: #000000; stroke-width: 0.8"
                 id="use522" />
            </g>
          </g>
          <g
             id="text_22">
            <!-- 22.0 -->
            <g
               style="fill: #ff0000"
               transform="translate(622.34 61.84434) scale(0.1 -0.1)"
               id="g535">
              <use
                 xlink:href="#DejaVuSans-32"
                 id="use527" />
              <use
                 xlink:href="#DejaVuSans-32"
                 transform="translate(63.623047 0)"
                 id="use529" />
              <use
                 xlink:href="#DejaVuSans-2e"
                 transform="translate(127.246094 0)"
                 id="use531" />
              <use
                 xlink:href="#DejaVuSans-30"
                 transform="translate(159.033203 0)"
                 id="use533" />
            </g>
          </g>
        </g>
        <g
           id="ytick_10">
          <g
             id="line2d_41">
            <g
               id="g541">
              <use
                 xlink:href="#m5a47799ec4"
                 x="615.34"
                 y="18.343339"
                 style="stroke: #000000; stroke-width: 0.8"
                 id="use539" />
            </g>
          </g>
          <g
             id="text_23">
            <!-- 22.5 -->
            <g
               style="fill: #ff0000"
               transform="translate(622.34 22.142557) scale(0.1 -0.1)"
               id="g552">
              <use
                 xlink:href="#DejaVuSans-32"
                 id="use544" />
              <use
                 xlink:href="#DejaVuSans-32"
                 transform="translate(63.623047 0)"
                 id="use546" />
              <use
                 xlink:href="#DejaVuSans-2e"
                 transform="translate(127.246094 0)"
                 id="use548" />
              <use
                 xlink:href="#DejaVuSans-35"
                 transform="translate(159.033203 0)"
                 id="use550" />
            </g>
          </g>
        </g>
        <g
           id="text_24">
          <!-- Temperature (°C) -->
          <g
             style="fill: #ff0000"
             transform="translate(656.204062 136.928288) rotate(-90) scale(0.1 -0.1)"
             id="g599">
            <defs
               id="defs565">
              <path
                 id="DejaVuSans-54"
                 d="M -19 4666  L 3928 4666  L 3928 4134  L 2272 4134  L 2272 0  L 1638 0  L 1638 4134  L -19 4134  L -19 4666  z "
                 transform="scale(0.015625)" />
              <path
                 id="DejaVuSans-65"
                 d="M 3597 1894  L 3597 1613  L 953 1613  Q 991 1019 1311 708  Q 1631 397 2203 397  Q 2534 397 2845 478  Q 3156 559 3463 722  L 3463 178  Q 3153 47 2828 -22  Q 2503 -91 2169 -91  Q 1331 -91 842 396  Q 353 884 353 1716  Q 353 2575 817 3079  Q 1281 3584 2069 3584  Q 2775 3584 3186 3129  Q 3597 2675 3597 1894  z M 3022 2063  Q 3016 2534 2758 2815  Q 2500 3097 2075 3097  Q 1594 3097 1305 2825  Q 1016 2553 972 2059  L 3022 2063  z "
                 transform="scale(0.015625)" />
              <path
                 id="DejaVuSans-6d"
                 d="M 3328 2828  Q 3544 3216 3844 3400  Q 4144 3584 4550 3584  Q 5097 3584 5394 3201  Q 5691 2819 5691 2113  L 5691 0  L 5113 0  L 5113 2094  Q 5113 2597 4934 2840  Q 4756 3084 4391 3084  Q 3944 3084 3684 2787  Q 3425 2491 3425 1978  L 3425 0  L 2847 0  L 2847 2094  Q 2847 2600 2669 2842  Q 2491 3084 2119 3084  Q 1678 3084 1418 2786  Q 1159 2488 1159 1978  L 1159 0  L 581 0  L 581 3500  L 1159 3500  L 1159 2956  Q 1356 3278 1631 3431  Q 1906 3584 2284 3584  Q 2666 3584 2933 3390  Q 3200 3197 3328 2828  z "
                 transform="scale(0.015625)" />
              <path
                 id="DejaVuSans-70"
                 d="M 1159 525  L 1159 -1331  L 581 -1331  L 581 3500  L 1159 3500  L 1159 2969  Q 1341 3281 1617 3432  Q 1894 3584 2278 3584  Q 2916 3584 3314 3078  Q 3713 2572 3713 1747  Q 3713 922 3314 415  Q 2916 -91 2278 -91  Q 1894 -91 1617 61  Q 1341 213 1159 525  z M 3116 1747  Q 3116 2381 2855 2742  Q 2594 3103 2138 3103  Q 1681 3103 1420 2742  Q 1159 2381 1159 1747  Q 1159 1113 1420 752  Q 1681 391 2138 391  Q 2594 391 2855 752  Q 3116 1113 3116 1747  z "
                 transform="scale(0.015625)" />
              <path
                 id="DejaVuSans-72"
                 d="M 2631 2963  Q 2534 3019 2420 3045  Q 2306 3072 2169 3072  Q 1681 3072 1420 2755  Q 1159 2438 1159 1844  L 1159 0  L 581 0  L 581 3500  L 1159 3500  L 1159 2956  Q 1341 3275 1631 3429  Q 1922 3584 2338 3584  Q 2397 3584 2469 3576  Q 2541 3569 2628 3553  L 2631 2963  z "
                 transform="scale(0.015625)" />
              <path
                 id="DejaVuSans-61"
                 d="M 2194 1759  Q 1497 1759 1228 1600  Q 959 1441 959 1056  Q 959 750 1161 570  Q 1363 391 1709 391  Q 2188 391 2477 730  Q 2766 1069 2766 1631  L 2766 1759  L 2194 1759  z M 3341 1997  L 3341 0  L 2766 0  L 2766 531  Q 2569 213 2275 61  Q 1981 -91 1556 -91  Q 1019 -91 701 211  Q 384 513 384 1019  Q 384 1609 779 1909  Q 1175 2209 1959 2209  L 2766 2209  L 2766 2266  Q 2766 2663 2505 2880  Q 2244 3097 1772 3097  Q 1472 3097 1187 3025  Q 903 2953 641 2809  L 641 3341  Q 956 3463 1253 3523  Q 1550 3584 1831 3584  Q 2591 3584 2966 3190  Q 3341 2797 3341 1997  z "
                 transform="scale(0.015625)" />
              <path
                 id="DejaVuSans-74"
                 d="M 1172 4494  L 1172 3500  L 2356 3500  L 2356 3053  L 1172 3053  L 1172 1153  Q 1172 725 1289 603  Q 1406 481 1766 481  L 2356 481  L 2356 0  L 1766 0  Q 1100 0 847 248  Q 594 497 594 1153  L 594 3053  L 172 3053  L 172 3500  L 594 3500  L 594 4494  L 1172 4494  z "
                 transform="scale(0.015625)" />
              <path
                 id="DejaVuSans-75"
                 d="M 544 1381  L 544 3500  L 1119 3500  L 1119 1403  Q 1119 906 1312 657  Q 1506 409 1894 409  Q 2359 409 2629 706  Q 2900 1003 2900 1516  L 2900 3500  L 3475 3500  L 3475 0  L 2900 0  L 2900 538  Q 2691 219 2414 64  Q 2138 -91 1772 -91  Q 1169 -91 856 284  Q 544 659 544 1381  z M 1991 3584  L 1991 3584  z "
                 transform="scale(0.015625)" />
              <path
                 id="DejaVuSans-b0"
                 d="M 1600 4347  Q 1350 4347 1178 4173  Q 1006 4000 1006 3750  Q 1006 3503 1178 3333  Q 1350 3163 1600 3163  Q 1850 3163 2022 3333  Q 2194 3503 2194 3750  Q 2194 3997 2020 4172  Q 1847 4347 1600 4347  z M 1600 4750  Q 1800 4750 1984 4673  Q 2169 4597 2303 4453  Q 2447 4313 2519 4134  Q 2591 3956 2591 3750  Q 2591 3338 2302 3052  Q 2013 2766 1594 2766  Q 1172 2766 890 3047  Q 609 3328 609 3750  Q 609 4169 896 4459  Q 1184 4750 1600 4750  z "
                 transform="scale(0.015625)" />
            </defs>
            <use
               xlink:href="#DejaVuSans-54"
               id="use567" />
            <use
               xlink:href="#DejaVuSans-65"
               transform="translate(44.083984 0)"
               id="use569" />
            <use
               xlink:href="#DejaVuSans-6d"
               transform="translate(105.607422 0)"
               id="use571" />
            <use
               xlink:href="#DejaVuSans-70"
               transform="translate(203.019531 0)"
               id="use573" />
            <use
               xlink:href="#DejaVuSans-65"
               transform="translate(266.496094 0)"
               id="use575" />
            <use
               xlink:href="#DejaVuSans-72"
               transform="translate(328.019531 0)"
               id="use577" />
            <use
               xlink:href="#DejaVuSans-61"
               transform="translate(369.132812 0)"
               id="use579" />
            <use
               xlink:href="#DejaVuSans-74"
               transform="translate(430.412109 0)"
               id="use581" />
            <use
               xlink:href="#DejaVuSans-75"
               transform="translate(469.621094 0)"
               id="use583" />
            <use
               xlink:href="#DejaVuSans-72"
               transform="translate(533 0)"
               id="use585" />
            <use
               xlink:href="#DejaVuSans-65"
               transform="translate(571.863281 0)"
               id="use587" />
            <use
               xlink:href="#DejaVuSans-20"
               transform="translate(633.386719 0)"
               id="use589" />
            <use
               xlink:href="#DejaVuSans-28"
               transform="translate(665.173828 0)"
               id="use591" />
            <use
               xlink:href="#DejaVuSans-b0"
               transform="translate(704.1875 0)"
               id="use593" />
            <use
               xlink:href="#DejaVuSans-43"
               transform="translate(754.1875 0)"
               id="use595" />
            <use
               xlink:href="#DejaVuSans-29"
               transform="translate(824.011719 0)"
               id="use597" />
          </g>
        </g>
      </g>
      <g
         id="line2d_42">
        <path
           d="M 57.596427 73.925834  L 58.43586 73.925834  L 59.275293 65.985478  L 68.547798 65.985478  L 69.387231 58.045121  L 70.226663 65.985478  L 71.066096 58.045121  L 87.93224 58.045121  L 88.771673 50.104765  L 89.611106 58.045121  L 114.910321 58.045121  L 115.749754 65.985478  L 119.120399 65.985478  L 119.959832 58.045121  L 120.81218 65.985478  L 149.469126 65.985478  L 150.308559 73.925834  L 151.147992 73.925834  L 152.000339 65.985478  L 152.839772 73.925834  L 161.25993 73.925834  L 162.099362 65.985478  L 162.95171 73.925834  L 175.607774 73.925834  L 176.447207 65.985478  L 177.299555 73.925834  L 181.522548 73.925834  L 182.361981 65.985478  L 183.201413 65.985478  L 184.053761 73.925834  L 184.893193 65.985478  L 195.03096 65.985478  L 195.870393 58.045121  L 196.709825 65.985478  L 197.562173 58.045121  L 198.401606 65.985478  L 199.241038 65.985478  L 200.093386 58.045121  L 201.772251 58.045121  L 202.611684 65.985478  L 203.464031 58.045121  L 204.303464 65.985478  L 205.995244 65.985478  L 206.834677 58.045121  L 207.67411 65.985478  L 209.36589 65.985478  L 210.205323 58.045121  L 211.044756 65.985478  L 228.750332 65.985478  L 229.60268 73.925834  L 230.442112 65.985478  L 234.665106 65.985478  L 235.504538 73.925834  L 237.196318 73.925834  L 238.035751 65.985478  L 238.888099 73.925834  L 241.419312 73.925834  L 242.258744 65.985478  L 243.111092 73.925834  L 265.052575 73.925834  L 265.892008 81.866191  L 278.560987 81.866191  L 279.40042 89.806547  L 280.252768 81.866191  L 281.931633 81.866191  L 282.771066 89.806547  L 283.623413 81.866191  L 284.462846 81.866191  L 285.302279 89.806547  L 286.154626 81.866191  L 291.217052 81.866191  L 292.056485 73.925834  L 292.908832 81.866191  L 293.748265 73.925834  L 303.02077 73.925834  L 303.873117 65.985478  L 304.71255 73.925834  L 305.551983 65.985478  L 311.453842 65.985478  L 312.306189 58.045121  L 324.109906 58.045121  L 324.949339 50.104765  L 327.480552 50.104765  L 328.319985 58.045121  L 329.172332 50.104765  L 330.011765 50.104765  L 330.851198 58.045121  L 331.690631 50.104765  L 343.494349 50.104765  L 344.333781 42.164408  L 363.718224 42.164408  L 364.557656 34.224052  L 371.298948 34.224052  L 372.151295 42.164408  L 372.990728 34.224052  L 405.005406 34.224052  L 405.844839 26.283695  L 406.697187 26.283695  L 407.536619 34.224052  L 408.376052 34.224052  L 409.215485 26.283695  L 412.586131 26.283695  L 413.425564 34.224052  L 414.277911 34.224052  L 415.117344 26.283695  L 416.79621 26.283695  L 417.648557 34.224052  L 418.48799 26.283695  L 419.327423 26.283695  L 420.166856 34.224052  L 421.019203 26.283695  L 421.858636 26.283695  L 422.698068 34.224052  L 455.539265 34.224052  L 456.378698 42.164408  L 457.231045 34.224052  L 465.651203 34.224052  L 466.490636 26.283695  L 479.120872 26.283695  L 479.960305 18.343339  L 480.799737 26.283695  L 484.157469 26.283695  L 485.009816 18.343339  L 485.849249 18.343339  L 486.688682 26.283695  L 487.528115 26.283695  L 488.367548 18.343339  L 489.206981 18.343339  L 490.046413 26.283695  L 490.898761 18.343339  L 493.417059 18.343339  L 494.256492 26.283695  L 498.466571 26.283695  L 499.318918 18.343339  L 500.158351 26.283695  L 500.997784 65.985478  L 501.837217 97.746904  L 502.689564 137.448687  L 503.528997 161.269756  L 504.36843 169.210113  L 510.283203 113.627617  L 511.122636 113.627617  L 511.962068 105.68726  L 512.814416 105.68726  L 513.653849 97.746904  L 514.493281 97.746904  L 515.345629 89.806547  L 517.024494 89.806547  L 517.876842 81.866191  L 519.555707 81.866191  L 520.39514 73.925834  L 527.988779 73.925834  L 528.828212 65.985478  L 536.421851 65.985478  L 537.274198 58.045121  L 538.113631 65.985478  L 538.953064 58.045121  L 539.805411 65.985478  L 540.644844 65.985478  L 541.484277 58.045121  L 542.32371 65.985478  L 543.176057 58.045121  L 546.546703 58.045121  L 547.386136 50.104765  L 548.225568 58.045121  L 549.077916 50.104765  L 561.721066 50.104765  L 562.560499 42.164408  L 602.130073 42.164408  L 602.969506 34.224052  L 603.821853 34.224052  L 604.661286 42.164408  L 605.500719 34.224052  L 606.340152 42.164408  L 607.179585 34.224052  L 608.019018 42.164408  L 608.871365 42.164408  L 609.710798 34.224052  L 614.760309 34.224052  L 614.760309 34.224052  "
           clip-path="url(#pc100ea07c9)"
           style="fill: none; stroke: #ff0000; stroke-width: 2; stroke-linecap: square"
           id="path603" />
      </g>
      <g
         id="patch_7">
        <path
           d="M 57.44 176.753451  L 57.44 10.8  "
           style="fill: none; stroke: #000000; stroke-width: 0.8; stroke-linejoin: miter; stroke-linecap: square"
           id="path606" />
      </g>
      <g
         id="patch_8">
        <path
           d="M 615.34 176.753451  L 615.34 10.8  "
           style="fill: none; stroke: #000000; stroke-width: 0.8; stroke-linejoin: miter; stroke-linecap: square"
           id="path609" />
      </g>
      <g
         id="patch_9">
        <path
           d="M 57.44 176.753451  L 615.34 176.753451  "
           style="fill: none; stroke: #000000; stroke-width: 0.8; stroke-linejoin: miter; stroke-linecap: square"
           id="path612" />
      </g>
      <g
         id="patch_10">
        <path
           d="M 57.44 10.8  L 615.34 10.8  "
           style="fill: none; stroke: #000000; stroke-width: 0.8; stroke-linejoin: miter; stroke-linecap: square"
           id="path615" />
      </g>
    </g>
    <g
       id="axes_3">
      <g
         id="matplotlib.axis_4">
        <g
           id="ytick_11">
          <g
             id="line2d_43">
            <g
               id="g621">
              <use
                 xlink:href="#m5a47799ec4"
                 x="675.34"
                 y="161.329012"
                 style="stroke: #000000; stroke-width: 0.8"
                 id="use619" />
            </g>
          </g>
          <g
             id="text_25">
            <!-- 36 -->
            <g
               style="fill: #0000ff"
               transform="translate(682.34 165.128231) scale(0.1 -0.1)"
               id="g628">
              <use
                 xlink:href="#DejaVuSans-33"
                 id="use624" />
              <use
                 xlink:href="#DejaVuSans-36"
                 transform="translate(63.623047 0)"
                 id="use626" />
            </g>
          </g>
        </g>
        <g
           id="ytick_12">
          <g
             id="line2d_44">
            <g
               id="g634">
              <use
                 xlink:href="#m5a47799ec4"
                 x="675.34"
                 y="138.811584"
                 style="stroke: #000000; stroke-width: 0.8"
                 id="use632" />
            </g>
          </g>
          <g
             id="text_26">
            <!-- 38 -->
            <g
               style="fill: #0000ff"
               transform="translate(682.34 142.610802) scale(0.1 -0.1)"
               id="g641">
              <use
                 xlink:href="#DejaVuSans-33"
                 id="use637" />
              <use
                 xlink:href="#DejaVuSans-38"
                 transform="translate(63.623047 0)"
                 id="use639" />
            </g>
          </g>
        </g>
        <g
           id="ytick_13">
          <g
             id="line2d_45">
            <g
               id="g647">
              <use
                 xlink:href="#m5a47799ec4"
                 x="675.34"
                 y="116.294155"
                 style="stroke: #000000; stroke-width: 0.8"
                 id="use645" />
            </g>
          </g>
          <g
             id="text_27">
            <!-- 40 -->
            <g
               style="fill: #0000ff"
               transform="translate(682.34 120.093373) scale(0.1 -0.1)"
               id="g654">
              <use
                 xlink:href="#DejaVuSans-34"
                 id="use650" />
              <use
                 xlink:href="#DejaVuSans-30"
                 transform="translate(63.623047 0)"
                 id="use652" />
            </g>
          </g>
        </g>
        <g
           id="ytick_14">
          <g
             id="line2d_46">
            <g
               id="g660">
              <use
                 xlink:href="#m5a47799ec4"
                 x="675.34"
                 y="93.776726"
                 style="stroke: #000000; stroke-width: 0.8"
                 id="use658" />
            </g>
          </g>
          <g
             id="text_28">
            <!-- 42 -->
            <g
               style="fill: #0000ff"
               transform="translate(682.34 97.575944) scale(0.1 -0.1)"
               id="g667">
              <use
                 xlink:href="#DejaVuSans-34"
                 id="use663" />
              <use
                 xlink:href="#DejaVuSans-32"
                 transform="translate(63.623047 0)"
                 id="use665" />
            </g>
          </g>
        </g>
        <g
           id="ytick_15">
          <g
             id="line2d_47">
            <g
               id="g673">
              <use
                 xlink:href="#m5a47799ec4"
                 x="675.34"
                 y="71.259297"
                 style="stroke: #000000; stroke-width: 0.8"
                 id="use671" />
            </g>
          </g>
          <g
             id="text_29">
            <!-- 44 -->
            <g
               style="fill: #0000ff"
               transform="translate(682.34 75.058515) scale(0.1 -0.1)"
               id="g680">
              <use
                 xlink:href="#DejaVuSans-34"
                 id="use676" />
              <use
                 xlink:href="#DejaVuSans-34"
                 transform="translate(63.623047 0)"
                 id="use678" />
            </g>
          </g>
        </g>
        <g
           id="ytick_16">
          <g
             id="line2d_48">
            <g
               id="g686">
              <use
                 xlink:href="#m5a47799ec4"
                 x="675.34"
                 y="48.741868"
                 style="stroke: #000000; stroke-width: 0.8"
                 id="use684" />
            </g>
          </g>
          <g
             id="text_30">
            <!-- 46 -->
            <g
               style="fill: #0000ff"
               transform="translate(682.34 52.541087) scale(0.1 -0.1)"
               id="g693">
              <use
                 xlink:href="#DejaVuSans-34"
                 id="use689" />
              <use
                 xlink:href="#DejaVuSans-36"
                 transform="translate(63.623047 0)"
                 id="use691" />
            </g>
          </g>
        </g>
        <g
           id="ytick_17">
          <g
             id="line2d_49">
            <g
               id="g699">
              <use
                 xlink:href="#m5a47799ec4"
                 x="675.34"
                 y="26.224439"
                 style="stroke: #000000; stroke-width: 0.8"
                 id="use697" />
            </g>
          </g>
          <g
             id="text_31">
            <!-- 48 -->
            <g
               style="fill: #0000ff"
               transform="translate(682.34 30.023658) scale(0.1 -0.1)"
               id="g706">
              <use
                 xlink:href="#DejaVuSans-34"
                 id="use702" />
              <use
                 xlink:href="#DejaVuSans-38"
                 transform="translate(63.623047 0)"
                 id="use704" />
            </g>
          </g>
        </g>
        <g
           id="text_32">
          <!-- Humidity (%) -->
          <g
             style="fill: #0000ff"
             transform="translate(706.663437 126.689226) rotate(-90) scale(0.1 -0.1)"
             id="g741">
            <defs
               id="defs715">
              <path
                 id="DejaVuSans-48"
                 d="M 628 4666  L 1259 4666  L 1259 2753  L 3553 2753  L 3553 4666  L 4184 4666  L 4184 0  L 3553 0  L 3553 2222  L 1259 2222  L 1259 0  L 628 0  L 628 4666  z "
                 transform="scale(0.015625)" />
              <path
                 id="DejaVuSans-69"
                 d="M 603 3500  L 1178 3500  L 1178 0  L 603 0  L 603 3500  z M 603 4863  L 1178 4863  L 1178 4134  L 603 4134  L 603 4863  z "
                 transform="scale(0.015625)" />
              <path
                 id="DejaVuSans-64"
                 d="M 2906 2969  L 2906 4863  L 3481 4863  L 3481 0  L 2906 0  L 2906 525  Q 2725 213 2448 61  Q 2172 -91 1784 -91  Q 1150 -91 751 415  Q 353 922 353 1747  Q 353 2572 751 3078  Q 1150 3584 1784 3584  Q 2172 3584 2448 3432  Q 2725 3281 2906 2969  z M 947 1747  Q 947 1113 1208 752  Q 1469 391 1925 391  Q 2381 391 2643 752  Q 2906 1113 2906 1747  Q 2906 2381 2643 2742  Q 2381 3103 1925 3103  Q 1469 3103 1208 2742  Q 947 2381 947 1747  z "
                 transform="scale(0.015625)" />
              <path
                 id="DejaVuSans-79"
                 d="M 2059 -325  Q 1816 -950 1584 -1140  Q 1353 -1331 966 -1331  L 506 -1331  L 506 -850  L 844 -850  Q 1081 -850 1212 -737  Q 1344 -625 1503 -206  L 1606 56  L 191 3500  L 800 3500  L 1894 763  L 2988 3500  L 3597 3500  L 2059 -325  z "
                 transform="scale(0.015625)" />
              <path
                 id="DejaVuSans-25"
                 d="M 4653 2053  Q 4381 2053 4226 1822  Q 4072 1591 4072 1178  Q 4072 772 4226 539  Q 4381 306 4653 306  Q 4919 306 5073 539  Q 5228 772 5228 1178  Q 5228 1588 5073 1820  Q 4919 2053 4653 2053  z M 4653 2450  Q 5147 2450 5437 2106  Q 5728 1763 5728 1178  Q 5728 594 5436 251  Q 5144 -91 4653 -91  Q 4153 -91 3862 251  Q 3572 594 3572 1178  Q 3572 1766 3864 2108  Q 4156 2450 4653 2450  z M 1428 4353  Q 1159 4353 1004 4120  Q 850 3888 850 3481  Q 850 3069 1003 2837  Q 1156 2606 1428 2606  Q 1700 2606 1854 2837  Q 2009 3069 2009 3481  Q 2009 3884 1853 4118  Q 1697 4353 1428 4353  z M 4250 4750  L 4750 4750  L 1831 -91  L 1331 -91  L 4250 4750  z M 1428 4750  Q 1922 4750 2215 4408  Q 2509 4066 2509 3481  Q 2509 2891 2217 2550  Q 1925 2209 1428 2209  Q 931 2209 642 2551  Q 353 2894 353 3481  Q 353 4063 643 4406  Q 934 4750 1428 4750  z "
                 transform="scale(0.015625)" />
            </defs>
            <use
               xlink:href="#DejaVuSans-48"
               id="use717" />
            <use
               xlink:href="#DejaVuSans-75"
               transform="translate(75.195312 0)"
               id="use719" />
            <use
               xlink:href="#DejaVuSans-6d"
               transform="translate(138.574219 0)"
               id="use721" />
            <use
               xlink:href="#DejaVuSans-69"
               transform="translate(235.986328 0)"
               id="use723" />
            <use
               xlink:href="#DejaVuSans-64"
               transform="translate(263.769531 0)"
               id="use725" />
            <use
               xlink:href="#DejaVuSans-69"
               transform="translate(327.246094 0)"
               id="use727" />
            <use
               xlink:href="#DejaVuSans-74"
               transform="translate(355.029297 0)"
               id="use729" />
            <use
               xlink:href="#DejaVuSans-79"
               transform="translate(394.238281 0)"
               id="use731" />
            <use
               xlink:href="#DejaVuSans-20"
               transform="translate(453.417969 0)"
               id="use733" />
            <use
               xlink:href="#DejaVuSans-28"
               transform="translate(485.205078 0)"
               id="use735" />
            <use
               xlink:href="#DejaVuSans-25"
               transform="translate(524.21875 0)"
               id="use737" />
            <use
               xlink:href="#DejaVuSans-29"
               transform="translate(619.238281 0)"
               id="use739" />
          </g>
        </g>
      </g>
      <g
         id="line2d_50">
        <path
           d="M 57.596427 28.476182  L 58.43586 27.35031  L 60.12764 29.602053  L 63.485372 29.602053  L 64.337719 30.727925  L 70.226663 30.727925  L 71.066096 31.853796  L 73.597309 31.853796  L 74.436742 32.979668  L 76.128522 32.979668  L 76.967955 31.853796  L 77.807388 31.853796  L 78.659735 32.979668  L 82.869814 32.979668  L 83.709247 34.105539  L 84.54868 32.979668  L 86.24046 32.979668  L 87.079893 34.105539  L 89.611106 34.105539  L 90.450538 35.23141  L 91.302886 34.105539  L 94.673531 34.105539  L 95.512964 35.23141  L 96.352397 35.23141  L 97.204744 34.105539  L 98.044177 35.23141  L 99.723043 35.23141  L 100.57539 34.105539  L 101.414823 35.23141  L 105.624902 35.23141  L 106.477249 34.105539  L 107.316682 34.105539  L 108.156115 35.23141  L 109.008462 35.23141  L 109.847895 34.105539  L 110.687328 35.23141  L 111.526761 34.105539  L 112.379108 34.105539  L 113.218541 35.23141  L 114.057974 34.105539  L 118.280967 34.105539  L 119.120399 32.979668  L 119.959832 34.105539  L 120.81218 32.979668  L 121.651612 34.105539  L 122.491045 32.979668  L 130.924117 32.979668  L 131.76355 34.105539  L 132.602983 32.979668  L 133.442416 34.105539  L 134.294763 34.105539  L 135.134196 32.979668  L 135.973629 32.979668  L 136.825976 34.105539  L 137.665409 32.979668  L 146.098481 32.979668  L 146.937913 34.105539  L 147.777346 32.979668  L 148.629693 34.105539  L 150.308559 34.105539  L 151.147992 32.979668  L 152.839772 32.979668  L 153.679205 31.853796  L 154.518638 32.979668  L 156.210418 32.979668  L 157.049851 31.853796  L 157.889284 32.979668  L 158.741631 31.853796  L 159.581064 32.979668  L 163.791143 32.979668  L 165.482923 30.727925  L 166.322356 30.727925  L 167.161788 31.853796  L 168.001221 31.853796  L 168.853568 32.979668  L 169.693001 32.979668  L 170.545349 34.105539  L 171.384781 34.105539  L 172.224214 35.23141  L 177.299555 35.23141  L 178.138987 34.105539  L 178.97842 35.23141  L 184.053761 35.23141  L 184.893193 34.105539  L 185.745541 35.23141  L 188.276754 35.23141  L 189.116187 34.105539  L 189.968534 34.105539  L 190.807967 35.23141  L 191.647399 35.23141  L 192.499747 34.105539  L 193.33918 35.23141  L 194.178612 34.105539  L 195.03096 35.23141  L 195.870393 35.23141  L 196.709825 36.357282  L 207.67411 36.357282  L 208.513543 37.483153  L 209.36589 36.357282  L 211.897103 36.357282  L 212.736536 37.483153  L 213.575969 36.357282  L 214.415402 37.483153  L 215.267749 36.357282  L 223.687906 36.357282  L 224.540254 35.23141  L 225.379687 36.357282  L 227.071467 36.357282  L 227.910899 35.23141  L 228.750332 36.357282  L 229.60268 35.23141  L 230.442112 36.357282  L 231.281545 36.357282  L 232.133893 35.23141  L 233.812758 35.23141  L 234.665106 36.357282  L 235.504538 35.23141  L 240.579879 35.23141  L 241.419312 34.105539  L 242.258744 35.23141  L 243.950524 35.23141  L 244.789957 34.105539  L 245.642305 35.23141  L 246.481737 34.105539  L 247.32117 35.23141  L 248.173518 34.105539  L 249.01295 35.23141  L 249.852383 34.105539  L 250.704731 35.23141  L 251.544163 34.105539  L 252.383596 35.23141  L 254.927724 35.23141  L 255.767156 34.105539  L 256.606589 35.23141  L 261.68193 35.23141  L 262.521362 34.105539  L 266.744356 34.105539  L 267.583788 32.979668  L 275.177427 32.979668  L 276.029774 34.105539  L 276.869207 32.979668  L 277.721555 34.105539  L 278.560987 32.979668  L 279.40042 34.105539  L 281.0922 34.105539  L 281.931633 35.23141  L 283.623413 35.23141  L 284.462846 34.105539  L 286.994059 37.483153  L 287.833492 37.483153  L 288.685839 38.609025  L 289.525272 37.483153  L 290.364705 38.609025  L 291.217052 37.483153  L 292.056485 38.609025  L 294.587698 38.609025  L 295.440045 37.483153  L 296.279478 38.609025  L 297.971258 38.609025  L 298.810691 37.483153  L 299.650124 38.609025  L 305.551983 38.609025  L 306.40433 37.483153  L 309.774976 37.483153  L 310.614409 36.357282  L 311.453842 37.483153  L 312.306189 36.357282  L 313.145622 37.483153  L 313.985055 36.357282  L 314.837402 36.357282  L 315.676835 37.483153  L 316.516268 36.357282  L 325.801687 36.357282  L 326.641119 37.483153  L 327.480552 36.357282  L 329.172332 36.357282  L 330.011765 35.23141  L 330.851198 35.23141  L 331.690631 36.357282  L 332.542978 35.23141  L 333.382411 36.357282  L 334.221844 35.23141  L 337.59249 35.23141  L 338.444837 34.105539  L 339.28427 34.105539  L 340.123703 35.23141  L 340.963136 35.23141  L 341.815483 36.357282  L 345.186129 36.357282  L 346.025562 35.23141  L 347.704427 35.23141  L 348.556774 36.357282  L 349.396207 35.23141  L 351.087987 35.23141  L 351.92742 36.357282  L 352.766853 35.23141  L 353.606286 35.23141  L 354.458633 36.357282  L 355.298066 35.23141  L 356.137499 36.357282  L 357.829279 36.357282  L 358.668712 37.483153  L 359.508145 36.357282  L 360.347578 37.483153  L 361.187011 36.357282  L 362.039358 37.483153  L 363.718224 37.483153  L 364.557656 38.609025  L 367.928302 38.609025  L 368.780649 39.734896  L 369.620082 38.609025  L 370.459515 39.734896  L 373.830161 39.734896  L 374.669594 40.860768  L 375.521941 39.734896  L 376.361374 39.734896  L 377.200807 40.860768  L 381.410886 40.860768  L 382.263233 39.734896  L 384.781531 39.734896  L 385.620964 38.609025  L 386.473312 39.734896  L 387.312744 37.483153  L 388.152177 38.609025  L 392.362256 38.609025  L 393.201689 39.734896  L 394.054036 39.734896  L 394.893469 38.609025  L 395.732902 38.609025  L 396.572335 39.734896  L 403.326541 39.734896  L 404.165974 38.609025  L 408.376052 38.609025  L 409.215485 37.483153  L 417.648557 37.483153  L 418.48799 38.609025  L 419.327423 37.483153  L 422.698068 37.483153  L 423.537501 38.609025  L 424.376934 37.483153  L 425.229281 37.483153  L 426.068714 38.609025  L 426.908147 38.609025  L 427.74758 37.483153  L 428.599927 38.609025  L 435.328305 38.609025  L 436.180652 39.734896  L 437.859518 37.483153  L 439.538383 37.483153  L 440.390731 36.357282  L 442.069596 36.357282  L 442.909029 35.23141  L 443.748462 35.23141  L 444.600809 34.105539  L 445.440242 34.105539  L 448.810888 29.602053  L 453.860399 29.602053  L 454.699832 28.476182  L 456.378698 28.476182  L 457.231045 27.35031  L 458.070478 29.602053  L 458.909911 28.476182  L 459.749344 28.476182  L 460.601691 26.224439  L 462.280557 26.224439  L 463.11999 28.476182  L 463.972337 28.476182  L 464.81177 27.35031  L 468.182416 27.35031  L 469.021849 26.224439  L 469.861281 27.35031  L 470.700714 26.224439  L 472.37958 26.224439  L 473.219013 27.35031  L 474.07136 23.972696  L 474.910793 23.972696  L 475.750226 26.224439  L 476.589659 30.727925  L 477.429092 36.357282  L 478.268524 39.734896  L 479.120872 40.860768  L 479.960305 43.112511  L 480.799737 41.986639  L 481.63917 41.986639  L 482.478603 40.860768  L 483.318036 38.609025  L 484.157469 35.23141  L 485.009816 35.23141  L 486.688682 32.979668  L 489.206981 32.979668  L 490.046413 31.853796  L 490.898761 31.853796  L 492.577626 34.105539  L 493.417059 32.979668  L 494.256492 32.979668  L 495.095925 31.853796  L 495.948272 31.853796  L 496.787705 30.727925  L 497.627138 31.853796  L 498.466571 28.476182  L 500.158351 30.727925  L 500.997784 108.413054  L 501.837217 152.322041  L 502.689564 166.95837  L 503.528997 169.210113  L 504.36843 152.322041  L 505.220777 138.811584  L 506.06021 127.552869  L 506.912557 125.301126  L 507.75199 119.671769  L 508.591423 116.294155  L 511.122636 109.538926  L 511.962068 106.161312  L 512.814416 100.531954  L 514.493281 91.524983  L 516.185062 89.27324  L 517.024494 89.27324  L 518.716274 87.021497  L 519.555707 84.769754  L 525.457566 76.888654  L 526.296999 76.888654  L 527.149346 74.636911  L 528.828212 74.636911  L 529.680559 73.51104  L 530.519992 74.636911  L 531.359425 72.385168  L 533.051205 72.385168  L 533.890638 71.259297  L 534.742985 71.259297  L 535.582418 70.133425  L 536.421851 70.133425  L 538.953064 66.755811  L 539.805411 64.504068  L 542.32371 61.126454  L 544.01549 61.126454  L 544.854923 60.000582  L 545.70727 57.748839  L 546.546703 58.874711  L 547.386136 57.748839  L 548.225568 57.748839  L 549.077916 58.874711  L 549.917349 58.874711  L 551.596214 56.622968  L 552.448562 56.622968  L 553.287994 55.497096  L 554.127427 55.497096  L 554.96686 56.622968  L 555.819207 55.497096  L 556.65864 50.993611  L 557.498073 53.245354  L 558.337506 50.993611  L 559.189853 49.867739  L 560.029286 50.993611  L 560.868719 47.615996  L 561.721066 48.741868  L 562.560499 47.615996  L 563.399932 45.364253  L 564.239365 45.364253  L 566.770578 41.986639  L 567.610011 38.609025  L 568.449443 37.483153  L 569.301791 35.23141  L 570.141224 34.105539  L 570.980656 34.105539  L 571.820089 31.853796  L 572.659522 30.727925  L 573.511869 31.853796  L 574.351302 31.853796  L 575.190735 30.727925  L 576.030168 30.727925  L 576.869601 28.476182  L 577.709034 27.35031  L 578.561381 28.476182  L 579.400814 39.734896  L 580.240247 40.860768  L 581.07968 34.105539  L 581.919112 31.853796  L 582.758545 30.727925  L 586.968624 30.727925  L 587.820971 29.602053  L 588.660404 30.727925  L 589.499837 29.602053  L 590.33927 30.727925  L 592.03105 30.727925  L 592.870483 28.476182  L 598.759427 28.476182  L 599.59886 27.35031  L 601.29064 27.35031  L 602.130073 28.476182  L 602.969506 27.35031  L 603.821853 27.35031  L 608.019018 21.720953  L 608.871365 21.720953  L 609.710798 20.595082  L 611.389663 20.595082  L 612.229096 18.343339  L 613.068529 19.46921  L 613.907962 18.343339  L 614.760309 20.595082  L 614.760309 20.595082  "
           clip-path="url(#pc100ea07c9)"
           style="fill: none; stroke: #0000ff; stroke-width: 2; stroke-linecap: square"
           id="path745" />
      </g>
      <g
         id="patch_11">
        <path
           d="M 57.44 176.753451  L 57.44 10.8  "
           style="fill: none; stroke: #000000; stroke-width: 0.8; stroke-linejoin: miter; stroke-linecap: square"
           id="path748" />
      </g>
      <g
         id="patch_12">
        <path
           d="M 675.34 176.753451  L 675.34 10.8  "
           style="fill: none; stroke: #000000; stroke-width: 0.8; stroke-linejoin: miter; stroke-linecap: square"
           id="path751" />
      </g>
      <g
         id="patch_13">
        <path
           d="M 57.44 176.753451  L 615.34 176.753451  "
           style="fill: none; stroke: #000000; stroke-width: 0.8; stroke-linejoin: miter; stroke-linecap: square"
           id="path754" />
      </g>
      <g
         id="patch_14">
        <path
           d="M 57.44 10.8  L 615.34 10.8  "
           style="fill: none; stroke: #000000; stroke-width: 0.8; stroke-linejoin: miter; stroke-linecap: square"
           id="path757" />
      </g>
    </g>
  </g>
  <defs
     id="defs765">
    <clipPath
       id="pc100ea07c9">
      <rect
         x="57.44"
         y="10.8"
         width="557.9"
         height="165.953451"
         id="rect762" />
    </clipPath>
  </defs>
</svg>
